<?xml version="1.0" encoding="UTF-8"?>
<svg width="29px" height="29px" viewBox="0 0 29 29" version="1.1" xmlns="http://www.w3.org/2000/svg" xmlns:xlink="http://www.w3.org/1999/xlink">
    <!-- Generator: Sketch 56.2 (81672) - https://sketch.com -->
    <title>Group 6 Copy</title>
    <desc>Created with Sketch.</desc>
    <defs>
        <polygon id="path-1" points="0 0.1016 28.8982012 0.1016 28.8982012 28.9988412 0 28.9988412"></polygon>
    </defs>
    <g id="Page-1" stroke="none" stroke-width="1" fill="none" fill-rule="evenodd">
        <g id="Q&amp;A-Poll-Viewer" transform="translate(-191.000000, -467.000000)">
            <g id="Group-2" transform="translate(191.000000, 433.000000)">
                <g id="Group-6-Copy" transform="translate(14.500000, 48.500000) rotate(-180.000000) translate(-14.500000, -48.500000) translate(0.000000, 34.000000)">
                    <path d="M14.1454283,10.5960481 L21.3766421,17.8844195 L23,17.8719549 L14.3677089,9.16488938 C14.1312401,8.94279348 13.728061,8.94505977 13.4963216,9.17168823 L5,18 L6.58906989,17.9886686 L13.7398844,10.5983144 C13.8498424,10.4850002 14.034288,10.483867 14.1454283,10.5960481" id="Fill-1" fill="#007DBA"></path>
                    <g id="Group-5">
                        <mask id="mask-2" fill="white">
                            <use xlink:href="#path-1"></use>
                        </mask>
                        <g id="Clip-4"></g>
                        <path d="M27.7077531,23.42228 C27.72444,25.73828 25.86684,27.65708 23.55084,27.67508 L5.57844,27.8083911 C3.26244,27.82508 1.34244,25.93388 1.32564,23.61788 L1.191129,5.64548 C1.17444,3.32948 3.06684,1.44428 5.38284,1.42628 L23.35524,1.29295037 C25.67124,1.27508 27.55644,3.13388 27.57444,5.44748 L27.7077531,23.42228 Z M23.34684,0.100150843 L5.37324,0.23468 C2.37804,0.25628 -0.02076,2.69228 -0.000489154807,5.65268 L0.13284,23.62748 C0.15564,26.62268 2.59044,29.02148 5.58564,28.9988412 L23.56044,28.86668 C26.52204,28.84508 28.92084,26.40908 28.8982012,23.41388 L28.76604,5.44028 C28.74324,2.47868 26.30844,0.07988 23.34684,0.100150843 L23.34684,0.100150843 Z" id="Fill-3" fill="#007DBA" mask="url(#mask-2)"></path>
                    </g>
                </g>
            </g>
        </g>
    </g>
</svg>