<?xml version="1.0" encoding="UTF-8"?>
<svg width="55px" height="50px" viewBox="0 0 55 50" version="1.1" xmlns="http://www.w3.org/2000/svg" xmlns:xlink="http://www.w3.org/1999/xlink">
    <!-- Generator: Sketch 56.2 (81672) - https://sketch.com -->
    <title>Group 3</title>
    <desc>Created with Sketch.</desc>
    <defs>
        <polygon id="path-1" points="0 0 55 0 55 50 0 50"></polygon>
    </defs>
    <g id="Page-1" stroke="none" stroke-width="1" fill="none" fill-rule="evenodd">
        <g id="Q&amp;A-Poll-Viewer" transform="translate(-1198.000000, -244.000000)">
            <g id="Group-3" transform="translate(1198.000000, 244.000000)">
                <mask id="mask-2" fill="white">
                    <use xlink:href="#path-1"></use>
                </mask>
                <g id="Clip-2"></g>
                <path d="M20.96,47.2496 L21.08,47.3226 C23.663,44.9026 26.246,42.4826 28.888,40.0076 C27.246,39.1636 25.687,38.3616 24.068,37.5286 C23.016,40.8206 21.987,44.0356 20.96,47.2496 L20.96,47.2496 Z M45.15,9.8686 C45.119,9.8356 45.088,9.8036 45.057,9.7706 C44.94,9.8496 44.82,9.9236 44.709,10.0096 C34.971,17.5886 25.234,25.1706 15.49,32.7436 C15.195,32.9726 15.136,33.1596 15.266,33.5216 C16.179,36.0816 17.066,38.6506 17.966,41.2156 C18.496,42.7306 19.031,44.2436 19.613,45.8956 C19.735,45.5646 19.817,45.3656 19.883,45.1616 C20.779,42.3606 21.656,39.5536 22.584,36.7636 C22.772,36.2016 23.073,35.6366 23.452,35.1936 C30.539,26.9056 37.646,18.6356 44.746,10.3606 C44.885,10.2006 45.016,10.0336 45.15,9.8686 L45.15,9.8686 Z M48.446,4.9416 C49.046,4.4746 49.647,4.0076 50.246,3.5416 C50.227,3.5086 50.207,3.4766 50.188,3.4436 C50.027,3.5136 49.863,3.5776 49.706,3.6546 C33.972,11.4756 18.238,19.2966 2.504,27.1186 C2.327,27.2066 2.136,27.2766 1.981,27.3976 C1.865,27.4886 1.709,27.6656 1.73,27.7696 C1.758,27.9136 1.923,28.0446 2.055,28.1436 C2.15,28.2156 2.289,28.2266 2.409,28.2626 C6.04,29.3746 9.674,30.4766 13.298,31.6126 C13.784,31.7646 14.114,31.6866 14.512,31.3756 L48.446,4.9416 Z M24.948,36.0196 C25.121,36.1246 25.208,36.1866 25.302,36.2346 C31.807,39.5836 38.311,42.9336 44.816,46.2786 C45.522,46.6416 45.861,46.4326 45.996,45.6026 C46.362,43.3486 46.734,41.0956 47.108,38.8426 C48.059,33.1296 49.013,27.4166 49.962,21.7036 C50.81,16.5946 51.654,11.4846 52.499,6.3746 C52.653,5.4416 52.804,4.5076 52.955,3.5746 C52.916,3.5576 52.877,3.5406 52.838,3.5236 C43.556,14.3396 34.273,25.1546 24.948,36.0196 L24.948,36.0196 Z M0,27.4516 C0.275,26.4526 0.986,25.9506 1.851,25.5216 C18.783,17.1246 35.707,8.7076 52.633,0.2956 C53.767,-0.2684 54.395,-0.0424 54.93,1.1126 C54.944,1.1446 54.977,1.1676 55,1.1956 L55,1.7536 C54.816,2.7356 54.617,3.7146 54.453,4.6996 C53.636,9.5876 52.827,14.4766 52.017,19.3656 C51.216,24.1996 50.417,29.0336 49.616,33.8686 C48.934,37.9876 48.257,42.1086 47.564,46.2266 C47.291,47.8396 45.681,48.6346 44.202,47.8836 C41.825,46.6766 39.459,45.4476 37.089,44.2266 C35.038,43.1706 32.983,42.1246 30.941,41.0506 C30.595,40.8686 30.388,40.9166 30.108,41.1806 C27.272,43.8576 24.421,46.5196 21.574,49.1846 C21.494,49.2596 21.414,49.3336 21.334,49.4086 C20.282,50.3806 19.328,50.1436 18.85,48.7786 C17.511,44.9566 16.176,41.1316 14.839,37.3086 C14.454,36.2086 14.044,35.1176 13.691,34.0066 C13.557,33.5816 13.326,33.3856 12.931,33.2666 C9.346,32.1846 5.772,31.0646 2.181,30.0076 C1.15,29.7056 0.337,29.2386 0,28.1216 L0,27.4516 Z" id="Fill-1" fill="#FFFFFF" mask="url(#mask-2)"></path>
            </g>
        </g>
    </g>
</svg>