<?xml version="1.0" encoding="UTF-8"?>
<svg width="41px" height="32px" viewBox="0 0 41 32" version="1.1" xmlns="http://www.w3.org/2000/svg" xmlns:xlink="http://www.w3.org/1999/xlink">
    <!-- Generator: Sketch 56.2 (81672) - https://sketch.com -->
    <title>Fill 1</title>
    <desc>Created with Sketch.</desc>
    <g id="Page-1" stroke="none" stroke-width="1" fill="none" fill-rule="evenodd">
        <g id="Q&amp;A-Poll-Viewer" transform="translate(-1205.000000, -361.000000)" fill="#007BBB" stroke="#007BBB">
            <path d="M1234.9925,386.569416 C1231.67604,389.860972 1226.95873,391.176628 1222.42897,390.119663 C1216.07735,388.614814 1211.52462,382.409121 1211.89779,376.156131 L1216.14815,381.303892 C1216.38163,381.586715 1216.82561,381.634013 1217.10501,381.398488 C1217.36145,381.162964 1217.4313,380.717011 1217.19783,380.435153 L1211.99156,374.1339 L1211.94468,374.087567 L1211.85091,373.993936 C1211.85091,373.993936 1211.80498,373.969805 1211.75809,373.969805 C1211.61743,373.828876 1211.43085,373.781578 1211.31411,373.781578 C1211.08064,373.781578 1210.89309,373.922507 1210.75339,374.087567 L1206.12986,381.092499 C1205.89638,381.398488 1205.9892,381.821275 1206.31644,382.033633 C1206.4571,382.126299 1206.54992,382.173597 1206.66665,382.173597 C1206.90108,382.173597 1207.1336,382.079966 1207.22641,381.868573 L1210.45007,377.025835 C1210.45007,383.725744 1215.2133,389.931436 1222.00891,391.576248 C1223.15331,391.858106 1224.32067,392 1225.46507,392 C1229.31738,392 1233.03095,390.495151 1235.85655,387.697811 C1236.11394,387.43912 1236.11394,387.016334 1235.85655,386.734476 C1235.66996,386.287558 1235.2499,386.287558 1234.9925,386.569416 M1244.68356,373.594316 C1244.38023,373.358791 1243.95922,373.452422 1243.74966,373.781578 L1240.78436,378.201529 C1240.97095,375.240094 1240.24661,372.324027 1238.65918,369.667616 C1236.48712,366.024704 1232.93813,363.368293 1228.89828,362.404958 C1223.5504,361.134668 1218.01594,362.898209 1214.3971,367.058503 C1214.11675,367.341326 1214.16267,367.787279 1214.44303,368.022803 C1214.69947,368.257363 1215.16642,368.257363 1215.37693,367.975505 C1218.69339,364.237997 1223.73699,362.592219 1228.594,363.767913 C1232.26068,364.637617 1235.48337,367.058503 1237.46789,370.396391 C1239.14909,373.217863 1239.80263,376.461155 1239.24191,379.611782 L1234.80592,374.275794 C1234.57244,373.993936 1234.12846,373.946638 1233.84906,374.181198 C1233.5687,374.393556 1233.52181,374.86364 1233.75529,375.145498 L1239.10221,381.586715 C1239.24191,381.726679 1239.42945,381.821275 1239.66293,381.821275 L1239.70981,381.821275 C1239.91936,381.821275 1240.10691,381.680346 1240.24661,381.492119 L1244.87014,374.557651 C1245.10362,374.228496 1245.0108,373.781578 1244.68356,373.594316" id="Fill-1"></path>
        </g>
    </g>
</svg>