<?xml version="1.0" encoding="UTF-8"?>
<svg width="21px" height="18px" viewBox="0 0 21 18" version="1.1" xmlns="http://www.w3.org/2000/svg" xmlns:xlink="http://www.w3.org/1999/xlink">
    <!-- Generator: Sketch 56.2 (81672) - https://sketch.com -->
    <title>Group 8</title>
    <desc>Created with Sketch.</desc>
    <defs>
        <polygon id="path-1" points="0 0.0004 19.3481978 0.0004 19.3481978 18 0 18"></polygon>
    </defs>
    <g id="Page-1" stroke="none" stroke-width="1" fill="none" fill-rule="evenodd">
        <g id="Q&amp;A-Poll-Presenter-View" transform="translate(-194.000000, -355.000000)">
            <g id="Group-8" transform="translate(194.000000, 355.000000)">
                <g id="Group-3">
                    <mask id="mask-2" fill="white">
                        <use xlink:href="#path-1"></use>
                    </mask>
                    <g id="Clip-2"></g>
                    <path d="M12.2422,6.3164 C10.9192,5.4084 9.1962,5.6304 8.1212,6.8374 C7.1242,7.9544 7.0222,9.7354 7.8782,10.7434 C9.3252,9.2754 10.7732,7.8064 12.2422,6.3164 L12.2422,6.3164 Z M14.3552,4.2394 C12.8062,3.4634 11.2742,3.0234 9.6172,3.2834 C5.9622,3.8564 3.5222,6.2644 1.2362,8.9764 C2.5132,10.6224 3.9152,12.0364 5.5322,13.0874 C6.0562,12.5624 6.5242,12.0934 6.9992,11.6164 C5.8392,9.3984 5.9362,7.5704 7.3252,6.0354 C7.9192,5.3794 8.6482,4.9494 9.5022,4.7394 C10.8272,4.4134 12.0282,4.7434 13.1012,5.4754 C13.5292,5.0534 13.9152,4.6734 14.3552,4.2394 L14.3552,4.2394 Z M1.9802,18.0004 C1.5252,17.4284 1.5292,17.3014 2.0472,16.7744 C2.9492,15.8574 3.8542,14.9434 4.7682,14.0174 C4.0722,13.4354 3.3692,12.9344 2.7712,12.3274 C1.8822,11.4224 1.0632,10.4464 0.2212,9.4944 C-0.0248,9.2164 -0.0918,8.9124 0.1542,8.5874 C2.1962,5.8794 4.5762,3.6024 7.8472,2.5174 C10.2202,1.7304 12.5202,2.0264 14.7302,3.1654 C14.8502,3.2274 14.9742,3.2854 15.0982,3.3404 C15.1332,3.3564 15.1732,3.3554 15.1892,3.3594 C16.3152,2.2334 17.4322,1.1164 18.5502,0.0004 L19.0162,0.0004 C19.4802,0.5744 19.4722,0.6864 18.9012,1.2654 C13.4212,6.8254 7.9392,12.3824 2.4592,17.9424 C2.4482,17.9544 2.4512,17.9804 2.4472,18.0004 L1.9802,18.0004 Z" id="Fill-1" fill="#CCCCCC" mask="url(#mask-2)"></path>
                </g>
                <path d="M21,9.2373 C19.683,10.9543 18.238,12.5423 16.462,13.7883 C14.426,15.2153 12.218,16.1243 9.697,15.8513 C8.711,15.7453 7.747,15.4163 6.729,15.1773 C7.284,14.2203 7.409,14.1653 8.284,14.4383 C10.481,15.1253 12.548,14.7333 14.522,13.6503 C16.591,12.5143 18.248,10.8963 19.807,8.9193 C18.636,7.7273 17.464,6.5363 16.265,5.3153 C16.462,5.1303 16.716,4.8913 17.001,4.6243 C18.545,5.7783 19.819,7.2223 21,8.7623 L21,9.2373 Z" id="Fill-4" fill="#CCCCCC"></path>
                <path d="M8.7783,12.9805 C9.1653,12.3935 9.5783,12.1285 10.3203,12.1955 C12.2653,12.3685 13.8383,10.7555 13.6453,8.7785 C13.5703,8.0015 13.8943,7.6275 14.4163,7.2525 C15.1713,8.8115 14.8253,10.7685 13.5753,12.0625 C12.3143,13.3665 10.4103,13.7395 8.7783,12.9805" id="Fill-6" fill="#CCCCCC"></path>
            </g>
        </g>
    </g>
</svg>